HIERARCHY
ROOT Hips
{
	OFFSET 0.000000 0.000000 0.000000
	CHANNELS 6 Xposition Yposition Zposition Zrotation Yrotation Xrotation 
	JOINT LeftUpLeg_virtual
	{
		OFFSET 0.000000 0.000000 0.000000
		CHANNELS 3 Zrotation Yrotation Xrotation
		JOINT LeftUpLeg
		{
			OFFSET 8.479694 -4.795517 -0.379053
			CHANNELS 3 Zrotation Yrotation Xrotation
			JOINT LeftLeg
			{
				OFFSET 0.485052 -32.551468 0.112863
				CHANNELS 3 Zrotation Yrotation Xrotation
				JOINT LeftFoot
				{
					OFFSET 0.438033 -32.635670 -3.012641
					CHANNELS 3 Zrotation Yrotation Xrotation
					JOINT LeftToeBase
					{
						OFFSET 0.970169 -13.225353 11.864223
						CHANNELS 3 Zrotation Yrotation Xrotation
						End Site
						{
							OFFSET 0.000000 0.000000 0.000000
						}
					}
				}
			}
		}
	}
	JOINT RightUpLeg_virtual
	{
		OFFSET 0.000000 0.000000 0.000000
		CHANNELS 3 Zrotation Yrotation Xrotation
		JOINT RightUpLeg
		{
			OFFSET -8.479694 -4.795517 -0.379053
			CHANNELS 3 Zrotation Yrotation Xrotation
			JOINT RightLeg
			{
				OFFSET -0.484100 -32.551483 0.112903
				CHANNELS 3 Zrotation Yrotation Xrotation
				JOINT RightFoot
				{
					OFFSET -0.438985 -32.635651 -3.012681
					CHANNELS 3 Zrotation Yrotation Xrotation
					JOINT RightToeBase
					{
						OFFSET -0.970169 -13.225354 11.864223
						CHANNELS 3 Zrotation Yrotation Xrotation
						End Site
						{
							OFFSET 0.000000 0.000000 0.000000
						}
					}
				}
			}
		}
	}
	JOINT Spine_virtual
	{
		OFFSET 0.000000 0.000000 0.000000
		CHANNELS 3 Zrotation Yrotation Xrotation
		JOINT Spine
		{
			OFFSET 0.000000 7.722015 1.166203
			CHANNELS 3 Zrotation Yrotation Xrotation
			JOINT Spine1
			{
				OFFSET 0.000000 12.024086 0.248766
				CHANNELS 3 Zrotation Yrotation Xrotation
				JOINT Spine2
				{
					OFFSET -0.000000 11.503036 -0.491240
					CHANNELS 3 Zrotation Yrotation Xrotation
					JOINT Neck_virtual
					{
						OFFSET 0.000000 0.000000 0.000000
						CHANNELS 3 Zrotation Yrotation Xrotation
						JOINT Neck
						{
							OFFSET 0.000000 18.430687 -3.123054
							CHANNELS 3 Zrotation Yrotation Xrotation
							JOINT Head
							{
								OFFSET -0.000000 9.051071 1.034021
								CHANNELS 3 Zrotation Yrotation Xrotation
								End Site
								{
									OFFSET 0.000000 0.000000 0.000000
								}
							}
						}
					}
					JOINT LeftShoulder_virtual
					{
						OFFSET 0.000000 0.000000 0.000000
						CHANNELS 3 Zrotation Yrotation Xrotation
						JOINT LeftShoulder
						{
							OFFSET 6.197824 13.665230 -4.064723
							CHANNELS 3 Zrotation Yrotation Xrotation
							JOINT LeftArm
							{
								OFFSET 7.778132 -0.187073 -1.709282
								CHANNELS 3 Zrotation Yrotation Xrotation
								JOINT LeftForeArm
								{
									OFFSET 21.954697 0.000000 -2.041093
									CHANNELS 3 Zrotation Yrotation Xrotation
									JOINT LeftHand
									{
										OFFSET 22.992908 0.000000 -0.870901
										CHANNELS 3 Zrotation Yrotation Xrotation
										End Site
										{
											OFFSET 0.000000 0.000000 0.000000
										}
									}
								}
							}
						}
					}
					JOINT RightShoulder_virtual
					{
						OFFSET 0.000000 0.000000 0.000000
						CHANNELS 3 Zrotation Yrotation Xrotation
						JOINT RightShoulder
						{
							OFFSET -6.197824 13.665230 -4.064723
							CHANNELS 3 Zrotation Yrotation Xrotation
							JOINT RightArm
							{
								OFFSET -7.778132 -0.187073 -1.709282
								CHANNELS 3 Zrotation Yrotation Xrotation
								JOINT RightForeArm
								{
									OFFSET -21.954697 0.000000 -2.041093
									CHANNELS 3 Zrotation Yrotation Xrotation
									JOINT RightHand
									{
										OFFSET -22.992908 0.000000 -0.870901
										CHANNELS 3 Zrotation Yrotation Xrotation
										End Site
										{
											OFFSET 0.000000 0.000000 0.000000
										}
									}
								}
							}
						}
					}
				}
			}
		}
	}
}
MOTION
Frames: 4
Frame Time: 0.033333
15.026868 78.541771 60.610214 1.044854 -78.962861 -0.901770 -6.374470 4.967714 8.751002 0.208352 8.417961 -24.595718 11.707753 8.211532 38.962418 -1.591013 -3.194896 -15.690524 0.000000 0.000000 0.000000 -2.908658 4.916531 8.729911 -2.314321 -15.832394 -36.962784 -1.372603 2.719948 40.752061 1.784490 1.976050 -6.882144 0.000000 0.000000 0.000000 -1.589854 7.234243 -4.658531 4.822432 1.723025 -2.125521 -0.310670 -5.207203 9.744022 0.012561 0.041415 0.032582 -0.186200 -4.003635 11.065759 7.257111 -10.700625 -0.483186 0.000000 0.000000 0.000000 1.367312 -3.891191 7.414450 -1.838892 -6.830603 1.986976 -41.088598 -45.428305 -0.269074 -137.013294 -78.911450 160.382008 0.000000 0.000000 0.000000 -2.853337 -1.891702 6.836613 20.388939 2.593321 -3.831279 46.016494 10.204886 -5.911280 -175.930565 66.381721 176.200494 0.000000 0.000000 0.000000 
13.407125 78.513123 59.589569 1.926789 -82.669147 -1.873468 -6.688437 4.833593 9.035380 1.351488 9.247421 -23.813823 12.326553 8.605908 39.729438 -1.151253 -3.019303 -15.866282 0.000000 0.000000 0.000000 -2.530812 4.309319 8.420717 -2.257835 -17.162008 -37.160197 -1.316703 2.586237 39.955169 1.551739 1.177874 -7.994339 0.000000 0.000000 0.000000 -1.468609 7.073945 -4.479352 4.844664 1.792978 -2.273854 -0.355401 -5.151899 9.728364 0.038183 0.084965 -0.013843 -0.312539 -4.273678 11.012904 6.883328 -10.560249 -0.352807 0.000000 0.000000 0.000000 1.293136 -3.810668 7.293436 -1.469260 -6.288027 1.995481 -41.309882 -45.266785 0.051448 -137.769669 -78.806798 161.050205 0.000000 0.000000 0.000000 -3.033035 -1.841194 6.808363 20.905498 2.870403 -3.474313 45.990140 11.011652 -5.593125 -176.275148 66.235329 175.634872 0.000000 0.000000 0.000000 
11.666726 78.469986 58.252449 1.144841 -85.707502 -1.422608 -6.600628 5.038870 9.787378 2.249933 10.019950 -22.991429 12.718842 7.901684 40.112735 -0.705512 -2.761016 -15.840341 0.000000 0.000000 0.000000 -2.201578 4.553833 8.372606 -1.631781 -17.670610 -38.076232 -0.817743 2.635385 39.887215 1.466110 0.768430 -8.284100 0.000000 0.000000 0.000000 -1.276857 7.087633 -3.940147 4.921336 1.730661 -2.446727 -0.349629 -5.202995 9.742312 0.089198 0.027021 -0.022090 -0.309410 -4.158479 10.819568 6.482913 -10.405351 -0.409964 0.000000 0.000000 0.000000 1.282727 -3.868006 7.247009 -1.151233 -5.966023 2.084877 -41.423916 -45.594170 0.167069 -139.818685 -78.910384 162.901186 0.000000 0.000000 0.000000 -3.050213 -1.854791 6.663778 21.355876 3.126173 -3.087617 45.798597 11.875683 -5.220852 -176.404074 66.001293 175.292885 0.000000 0.000000 0.000000 
9.776324 78.415749 56.721310 -7.505086 -88.752591 7.111249 -5.854889 5.376067 10.701704 2.607939 11.115349 -22.355429 12.141740 6.172285 40.173680 -0.385410 -2.543013 -15.687811 0.000000 0.000000 0.000000 -1.977969 4.721770 8.556214 -0.343368 -17.763534 -39.401234 -0.075391 2.634922 40.176095 1.276046 0.520921 -8.655184 0.000000 0.000000 0.000000 -1.098913 7.004634 -3.346445 4.985319 1.506925 -2.784383 -0.268036 -5.250651 9.589494 0.033510 -0.004154 -0.063536 -0.298741 -4.181925 10.749170 6.026963 -10.235215 -0.375452 0.000000 0.000000 0.000000 1.353147 -3.802218 7.178910 -0.974212 -5.520359 2.077351 -42.134047 -46.401119 0.531817 -141.581707 -78.882203 164.338777 0.000000 0.000000 0.000000 -3.066874 -1.780970 6.634931 21.642288 3.553630 -2.716280 45.242364 12.956795 -5.153044 -176.230588 65.853631 175.250701 0.000000 0.000000 0.000000 
